<svg width="320" height="568" viewBox="0 0 320 568" fill="none" xmlns="http://www.w3.org/2000/svg">
<rect width="567.844" height="327" transform="matrix(0 -1 1 0.000400453 0 567.844)" fill="#FFD801"/>
<path d="M40 360.5C40 360.5 31.7493 360.72 28.5256 363.836C25.3019 366.952 25 375 25 375C25 375 24.7737 366.952 21.55 363.836C18.3263 360.72 10 360.5 10 360.5C10 360.5 18.3263 360.281 21.55 357.165C24.7737 354.049 25 346 25 346C25 346 25.3019 354.049 28.5256 357.165C31.7493 360.281 40 360.5 40 360.5Z" fill="white"/>
<path d="M290 170.5C290 170.5 282.024 170.72 278.908 173.836C275.792 176.952 275.5 185 275.5 185C275.5 185 275.281 176.952 272.165 173.836C269.049 170.72 261 170.5 261 170.5C261 170.5 269.049 170.281 272.165 167.165C275.281 164.049 275.5 156 275.5 156C275.5 156 275.792 164.049 278.908 167.165C282.024 170.281 290 170.5 290 170.5Z" fill="white"/>
<path d="M301 84.5C301 84.5 296.05 84.6289 294.115 86.4557C292.181 88.2824 292 93 292 93C292 93 291.864 88.2824 289.93 86.4557C287.996 84.6289 283 84.5 283 84.5C283 84.5 287.996 84.3718 289.93 82.545C291.864 80.7182 292 76 292 76C292 76 292.181 80.7182 294.115 82.545C296.05 84.3718 301 84.5 301 84.5Z" fill="white"/>
<path d="M44 159C44 159 39.0496 159.121 37.1154 160.841C35.1811 162.56 35 167 35 167C35 167 34.8642 162.56 32.93 160.841C30.9958 159.121 26 159 26 159C26 159 30.9958 158.879 32.93 157.16C34.8642 155.441 35 151 35 151C35 151 35.1811 155.441 37.1154 157.16C39.0496 158.879 44 159 44 159Z" fill="white"/>
<path d="M152 101.5C152 101.5 149.25 101.568 148.175 102.535C147.101 103.502 147 106 147 106C147 106 146.925 103.502 145.85 102.535C144.775 101.568 142 101.5 142 101.5C142 101.5 144.775 101.432 145.85 100.465C146.925 99.4979 147 97 147 97C147 97 147.101 99.4979 148.175 100.465C149.25 101.432 152 101.5 152 101.5Z" fill="white"/>
<path d="M218 21.5C218 21.5 215.525 21.5682 214.558 22.5354C213.591 23.5025 213.5 26 213.5 26C213.5 26 213.432 23.5025 212.465 22.5354C211.498 21.5682 209 21.5 209 21.5C209 21.5 211.498 21.4321 212.465 20.465C213.432 19.4979 213.5 17 213.5 17C213.5 17 213.591 19.4979 214.558 20.465C215.525 21.4321 218 21.5 218 21.5Z" fill="white"/>
<path d="M280 327.5C280 327.5 277.25 327.568 276.175 328.535C275.101 329.502 275 332 275 332C275 332 274.925 329.502 273.85 328.535C272.775 327.568 270 327.5 270 327.5C270 327.5 272.775 327.432 273.85 326.465C274.925 325.498 275 323 275 323C275 323 275.101 325.498 276.175 326.465C277.25 327.432 280 327.5 280 327.5Z" fill="white"/>
<path d="M293 465.5C293 465.5 290.525 465.568 289.558 466.535C288.591 467.502 288.5 470 288.5 470C288.5 470 288.432 467.502 287.465 466.535C286.498 465.568 284 465.5 284 465.5C284 465.5 286.498 465.432 287.465 464.465C288.432 463.498 288.5 461 288.5 461C288.5 461 288.591 463.498 289.558 464.465C290.525 465.432 293 465.5 293 465.5Z" fill="white"/>
<path d="M136 312.5C136 312.5 133.525 312.568 132.558 313.535C131.591 314.502 131.5 317 131.5 317C131.5 317 131.432 314.502 130.465 313.535C129.498 312.568 127 312.5 127 312.5C127 312.5 129.498 312.432 130.465 311.465C131.432 310.498 131.5 308 131.5 308C131.5 308 131.591 310.498 132.558 311.465C133.525 312.432 136 312.5 136 312.5Z" fill="white"/>
<path d="M77 341.5C77 341.5 74.5248 341.568 73.5577 342.535C72.5906 343.502 72.5 346 72.5 346C72.5 346 72.4321 343.502 71.465 342.535C70.4979 341.568 68 341.5 68 341.5C68 341.5 70.4979 341.432 71.465 340.465C72.4321 339.498 72.5 337 72.5 337C72.5 337 72.5906 339.498 73.5577 340.465C74.5248 341.432 77 341.5 77 341.5Z" fill="white"/>
<path d="M109 449.5C109 449.5 106.25 449.568 105.175 450.535C104.101 451.502 104 454 104 454C104 454 103.925 451.502 102.85 450.535C101.775 449.568 99 449.5 99 449.5C99 449.5 101.775 449.432 102.85 448.465C103.925 447.498 104 445 104 445C104 445 104.101 447.498 105.175 448.465C106.25 449.432 109 449.5 109 449.5Z" fill="white"/>
<path d="M237 345.5C237 345.5 234.25 345.568 233.175 346.535C232.101 347.502 232 350 232 350C232 350 231.925 347.502 230.85 346.535C229.775 345.568 227 345.5 227 345.5C227 345.5 229.775 345.432 230.85 344.465C231.925 343.498 232 341 232 341C232 341 232.101 343.498 233.175 344.465C234.25 345.432 237 345.5 237 345.5Z" fill="white"/>
<path d="M40 273C40 273 35.0496 273.136 33.1154 275.071C31.1811 277.005 31 282 31 282C31 282 30.8642 277.005 28.93 275.071C26.9958 273.136 22 273 22 273C22 273 26.9958 272.864 28.93 270.93C30.8642 268.996 31 264 31 264C31 264 31.1811 268.996 33.1154 270.93C35.0496 272.864 40 273 40 273Z" fill="white"/>
<path d="M154 413.5C154 413.5 149.05 413.629 147.115 415.456C145.181 417.282 145 422 145 422C145 422 144.864 417.282 142.93 415.456C140.996 413.629 136 413.5 136 413.5C136 413.5 140.996 413.372 142.93 411.545C144.864 409.718 145 405 145 405C145 405 145.181 409.718 147.115 411.545C149.05 413.372 154 413.5 154 413.5Z" fill="white"/>
<path d="M241 467.5C241 467.5 236.05 467.629 234.115 469.456C232.181 471.282 232 476 232 476C232 476 231.864 471.282 229.93 469.456C227.996 467.629 223 467.5 223 467.5C223 467.5 227.996 467.372 229.93 465.545C231.864 463.718 232 459 232 459C232 459 232.181 463.718 234.115 465.545C236.05 467.372 241 467.5 241 467.5Z" fill="white"/>
<path d="M306 276.5C306 276.5 301.05 276.629 299.115 278.456C297.181 280.282 297 285 297 285C297 285 296.864 280.282 294.93 278.456C292.996 276.629 288 276.5 288 276.5C288 276.5 292.996 276.372 294.93 274.545C296.864 272.718 297 268 297 268C297 268 297.181 272.718 299.115 274.545C301.05 276.372 306 276.5 306 276.5Z" fill="white"/>
<path d="M306 393.5C306 393.5 301.05 393.629 299.115 395.456C297.181 397.282 297 402 297 402C297 402 296.864 397.282 294.93 395.456C292.996 393.629 288 393.5 288 393.5C288 393.5 292.996 393.372 294.93 391.545C296.864 389.718 297 385 297 385C297 385 297.181 389.718 299.115 391.545C301.05 393.372 306 393.5 306 393.5Z" fill="white"/>
<path d="M176 299C176 299 171.05 299.136 169.115 301.071C167.181 303.005 167 308 167 308C167 308 166.864 303.005 164.93 301.071C162.996 299.136 158 299 158 299C158 299 162.996 298.864 164.93 296.93C166.864 294.996 167 290 167 290C167 290 167.181 294.996 169.115 296.93C171.05 298.864 176 299 176 299Z" fill="white"/>
<path d="M232 240C232 240 227.05 240.136 225.115 242.071C223.181 244.005 223 249 223 249C223 249 222.864 244.005 220.93 242.071C218.996 240.136 214 240 214 240C214 240 218.996 239.864 220.93 237.93C222.864 235.996 223 231 223 231C223 231 223.181 235.996 225.115 237.93C227.05 239.864 232 240 232 240Z" fill="white"/>
<path d="M44 444C44 444 35.4743 444.212 32.1431 447.221C28.8119 450.23 28.5 458 28.5 458C28.5 458 28.2662 450.23 24.935 447.221C21.6038 444.212 13 444 13 444C13 444 21.6038 443.789 24.935 440.78C28.2662 437.771 28.5 430 28.5 430C28.5 430 28.8119 437.771 32.1431 440.78C35.4743 443.789 44 444 44 444Z" fill="white"/>
<path d="M132 212.5C132 212.5 123.749 212.72 120.526 215.836C117.302 218.952 117 227 117 227C117 227 116.774 218.952 113.55 215.836C110.326 212.72 102 212.5 102 212.5C102 212.5 110.326 212.281 113.55 209.165C116.774 206.049 117 198 117 198C117 198 117.302 206.049 120.526 209.165C123.749 212.281 132 212.5 132 212.5Z" fill="white"/>
<path d="M241 393.5C241 393.5 232.749 393.72 229.526 396.836C226.302 399.952 226 408 226 408C226 408 225.774 399.952 222.55 396.836C219.326 393.72 211 393.5 211 393.5C211 393.5 219.326 393.281 222.55 390.165C225.774 387.049 226 379 226 379C226 379 226.302 387.049 229.526 390.165C232.749 393.281 241 393.5 241 393.5Z" fill="white"/>
</svg>
