<svg width="180" height="334" viewBox="0 0 180 334" fill="none" xmlns="http://www.w3.org/2000/svg">
<path d="M137 196.135C137 120.196 75.663 58.6348 -6.47631e-06 58.6348L-3.05176e-05 333.635C75.663 333.635 137 272.074 137 196.135Z" fill="#1627F1"/>
<path fill-rule="evenodd" clip-rule="evenodd" d="M-2.53206e-05 289.634C12.4821 277.079 25.1538 263.692 37.8514 249.586C134.949 141.716 196.786 32.6315 175.967 5.93842C157.848 -17.293 83.0934 29.5398 -9.89517e-06 113.188L-1.13667e-05 130.019C66.3105 62.2459 124.437 22.1892 136.701 37.9144C150.804 55.9967 98.9257 140.99 20.8273 227.753C13.8444 235.51 6.88829 243.019 -2.18775e-05 250.249L-2.53206e-05 289.634Z" fill="#FB2900"/>
<path d="M86.5001 102.635C99.0001 113.636 75.6632 58.6349 0.000130813 58.6349L0.000137329 158.635C75.6632 158.635 80 125.635 86.5001 102.635Z" fill="#1627F1"/>
</svg>
