<svg width="128" height="70" viewBox="0 0 128 70" fill="none" xmlns="http://www.w3.org/2000/svg">
<path d="M75.2398 16.4961C46.1055 16.4961 22.4875 40.0282 22.4875 69.0566L127.992 69.0566C127.992 40.0282 104.374 16.4961 75.2398 16.4961Z" fill="#1627F1"/>
<path fill-rule="evenodd" clip-rule="evenodd" d="M111.121 69.0586C106.304 64.2692 101.167 59.4071 95.7546 54.5351C54.3699 17.2831 12.5192 -6.44067 2.27829 1.54652C-6.63467 8.49804 11.3337 37.1789 43.4265 69.0586L49.8839 69.0586C23.8807 43.6172 8.5115 21.3156 14.5447 16.6101C21.4821 11.1994 54.0902 31.1028 87.3769 61.0655C90.3541 63.7454 93.2359 66.415 96.0106 69.0586L111.121 69.0586Z" fill="#FB2900"/>
<path d="M39.3749 35.8713C43.5953 31.0756 22.4941 40.0289 22.4941 69.0573L60.8594 69.0573C60.8594 40.0289 48.1988 38.3651 39.3749 35.8713Z" fill="#1627F1"/>
</svg>
