<svg width="340" height="112" viewBox="0 0 340 112" fill="none" xmlns="http://www.w3.org/2000/svg">
<path d="M27.6112 4.00111C27.6112 4.00111 77.5384 66.4651 170.96 66.3161C264.382 66.1672 313.66 4.00113 313.66 4.00113" stroke="black" stroke-width="7" stroke-linecap="round" stroke-linejoin="round"/>
<path d="M334.844 43.1367C324.811 34.7434 309.155 21.6444 309.155 21.6444" stroke="black" stroke-width="7" stroke-linecap="round" stroke-linejoin="round"/>
<path d="M287.102 78.8516C279.881 67.9445 268.613 50.9224 268.613 50.9224" stroke="black" stroke-width="7" stroke-linecap="round" stroke-linejoin="round"/>
<path d="M231.824 100.102C227.616 87.7167 221.048 68.3883 221.048 68.3883" stroke="black" stroke-width="7" stroke-linecap="round" stroke-linejoin="round"/>
<path d="M106.82 100.32C110.696 87.8274 116.745 68.3302 116.745 68.3302" stroke="black" stroke-width="7" stroke-linecap="round" stroke-linejoin="round"/>
<path d="M170.277 108.359C170.563 95.2822 171.009 74.8733 171.009 74.8733" stroke="black" stroke-width="7" stroke-linecap="round" stroke-linejoin="round"/>
<path d="M47.8516 74.5742C54.9001 63.5555 65.9004 46.359 65.9004 46.359" stroke="black" stroke-width="7" stroke-linecap="round" stroke-linejoin="round"/>
<path d="M5 42.2891C13.8303 32.6392 27.6113 17.5791 27.6113 17.5791" stroke="black" stroke-width="7" stroke-linecap="round" stroke-linejoin="round"/>
</svg>
