<svg width="319" height="465" viewBox="0 0 319 465" fill="none" xmlns="http://www.w3.org/2000/svg">
<path d="M99 244C99 366.055 197.497 465 319 465V23C197.497 23 99 121.945 99 244Z" fill="#FFD801"/>
<path fill-rule="evenodd" clip-rule="evenodd" d="M318.773 402.903C296.668 385.45 274.227 366.84 251.741 347.23C79.7845 197.274 -29.7252 45.6285 7.14401 8.52092C39.2318 -23.7744 171.619 41.3304 318.773 157.614L318.773 181.016C201.341 86.8003 98.4023 31.1152 76.6822 52.9757C51.7064 78.113 143.581 196.268 281.89 316.882C294.256 327.666 306.575 338.104 318.773 348.155L318.773 402.903Z" fill="#FB2900"/>
<path d="M130.5 150.5C130.5 175.5 197.497 203.5 319 203.5V23C197.497 23 130.5 116 130.5 150.5Z" fill="#FFD801"/>
</svg>
